<svg width="18" height="20" viewBox="0 0 18 20" fill="none" xmlns="http://www.w3.org/2000/svg">
<path d="M17.2191 4.55053C17.3146 4.59698 17.396 4.67409 17.4472 4.77639C17.4496 4.78127 17.452 4.78617 17.4543 4.79109C17.4592 4.80187 17.4638 4.81283 17.468 4.82397C17.4911 4.88521 17.5013 4.94812 17.5 5.01006V8.5C17.5 8.77614 17.2761 9 17 9C16.7238 9 16.5 8.77614 16.5 8.5V5.80902L14.2236 6.94721C13.9766 7.07071 13.6763 6.9706 13.5528 6.72361C13.4293 6.47662 13.5294 6.17628 13.7764 6.05279L15.882 5L13.7764 3.94721C13.5294 3.82372 13.4293 3.52338 13.5528 3.27639C13.6763 3.0294 13.9766 2.92929 14.2236 3.05279L17.2191 4.55053ZM17.5 14.9899C17.5015 15.0633 17.4869 15.1381 17.4543 15.2089C17.4298 15.2621 17.396 15.3108 17.3546 15.3526C17.3125 15.3944 17.2676 15.4259 17.2191 15.4495L14.2236 16.9472C13.9766 17.0707 13.6763 16.9706 13.5528 16.7236C13.4293 16.4766 13.5294 16.1763 13.7764 16.0528L15.882 15L13.7764 13.9472C13.5294 13.8237 13.4293 13.5234 13.5528 13.2764C13.6763 13.0294 13.9766 12.9293 14.2236 13.0528L16.5 14.191V11.5C16.5 11.2239 16.7238 11 17 11C17.2761 11 17.5 11.2239 17.5 11.5V14.9899ZM2.11802 15L4.22359 16.0528C4.47058 16.1763 4.5707 16.4766 4.4472 16.7236C4.32371 16.9706 4.02337 17.0707 3.77638 16.9472L0.780898 15.4495C0.685422 15.403 0.603927 15.3259 0.552774 15.2236C0.550335 15.2187 0.547984 15.2138 0.545719 15.2089C0.540759 15.1981 0.536179 15.1872 0.531989 15.176C0.508921 15.1148 0.498689 15.0519 0.499987 14.9899V11.5C0.499987 11.2239 0.723845 11 0.999987 11C1.27613 11 1.49999 11.2239 1.49999 11.5V14.191L3.77638 13.0528C4.02337 12.9293 4.32371 13.0294 4.4472 13.2764C4.5707 13.5234 4.47058 13.8237 4.22359 13.9472L2.11802 15ZM1.49999 5.80902V8.5C1.49999 8.77614 1.27613 9 0.999987 9C0.723845 9 0.499987 8.77614 0.499987 8.5V5.01006C0.498448 4.93665 0.513104 4.8619 0.545719 4.79109C0.570208 4.73786 0.603932 4.68918 0.645415 4.64745C0.687515 4.60563 0.732403 4.57412 0.780898 4.55053L3.77638 3.05279C4.02337 2.92929 4.32371 3.0294 4.4472 3.27639C4.5707 3.52338 4.47058 3.82372 4.22359 3.94721L2.11802 5L4.22359 6.05279C4.47058 6.17628 4.5707 6.47662 4.4472 6.72361C4.32371 6.9706 4.02337 7.07071 3.77638 6.94721L1.49999 5.80902ZM8.76738 0.557285C8.83687 0.520704 8.91601 0.5 8.99999 0.5C9.08397 0.5 9.16311 0.520704 9.23259 0.557285L12.2236 2.05279C12.4706 2.17628 12.5707 2.47662 12.4472 2.72361C12.3237 2.9706 12.0234 3.07071 11.7764 2.94721L9.49999 1.80902V4.5C9.49999 4.77614 9.27613 5 8.99999 5C8.72385 5 8.49999 4.77614 8.49999 4.5V1.80902L6.22359 2.94721C5.97661 3.07071 5.67627 2.9706 5.55277 2.72361C5.42928 2.47662 5.52939 2.17628 5.77638 2.05279L8.76738 0.557285ZM9.23259 19.4427C9.16311 19.4793 9.08397 19.5 8.99999 19.5C8.91601 19.5 8.83687 19.4793 8.76738 19.4427L5.77638 17.9472C5.52939 17.8237 5.42928 17.5234 5.55277 17.2764C5.67627 17.0294 5.97661 16.9293 6.22359 17.0528L8.49999 18.191V15.5C8.49999 15.2239 8.72385 15 8.99999 15C9.27613 15 9.49999 15.2239 9.49999 15.5V18.191L11.7764 17.0528C12.0234 16.9293 12.3237 17.0294 12.4472 17.2764C12.5707 17.5234 12.4706 17.8237 12.2236 17.9472L9.23259 19.4427ZM9.49999 9.30902V12C9.49999 12.2761 9.27613 12.5 8.99999 12.5C8.72385 12.5 8.49999 12.2761 8.49999 12V9.30902L5.77638 7.94721C5.52939 7.82372 5.42928 7.52338 5.55277 7.27639C5.67627 7.0294 5.97661 6.92929 6.22359 7.05279L8.99999 8.44098L11.7764 7.05279C12.0234 6.92929 12.3237 7.0294 12.4472 7.27639C12.5707 7.52338 12.4706 7.82372 12.2236 7.94721L9.49999 9.30902Z" fill="white"/>
</svg>
